<?xml version="1.0" encoding="UTF-8"?>
<svg id="Capa_1" xmlns="http://www.w3.org/2000/svg" version="1.1" viewBox="0 0 771 210">
  <!-- Generator: Adobe Illustrator 30.2.0, SVG Export Plug-In . SVG Version: 2.1.1 Build 26)  -->
  <defs>
    <style>
      .st0 {
        fill: #37525a;
      }

      .st1 {
        fill: #3a656a;
      }

      .st2 {
        fill: #4ad1c8;
      }

      .st3 {
        fill: #37545d;
      }

      .st4 {
        fill: #f5f1eb;
      }

      .st5 {
        fill: #3a6169;
      }

      .st6 {
        fill: #c5d7df;
      }

      .st7 {
        fill: #f7f4ea;
      }

      .st8 {
        fill: #315058;
      }

      .st9 {
        fill: #33555d;
      }

      .st10 {
        fill: #eba155;
      }

      .st11 {
        fill: #f1ede6;
      }

      .st12 {
        fill: #ea9f4d;
      }

      .st13 {
        fill: #f5f0e7;
      }

      .st14 {
        fill: #f7f6f0;
      }

      .st15 {
        fill: #efa650;
      }

      .st16 {
        fill: #3e575e;
      }

      .st17 {
        fill: #f4f3e9;
      }

      .st18 {
        fill: #f8f9f4;
      }

      .st19 {
        fill: #f6f6f8;
      }

      .st20 {
        fill: #eaaa56;
      }

      .st21 {
        fill: #ecab53;
      }

      .st22 {
        fill: #f3f3f0;
      }

      .st23 {
        fill: #234c58;
      }

      .st24 {
        fill: #2b515b;
      }

      .st25 {
        fill: #35555d;
      }

      .st26 {
        fill: #37555d;
      }

      .st27 {
        fill: #39545b;
      }

      .st28 {
        fill: #234c59;
      }

      .st29 {
        fill: #39525a;
      }

      .st30 {
        fill: #f5f1e8;
      }

      .st31 {
        fill: #eaae5d;
      }

      .st32 {
        fill: #f7f8f6;
      }

      .st33 {
        fill: #1b4a58;
      }

      .st34 {
        fill: #38575e;
      }

      .st35 {
        fill: #efa953;
      }

      .st36 {
        fill: #eef1ee;
      }

      .st37 {
        fill: #154553;
      }

      .st38 {
        fill: #ebac59;
      }

      .st39 {
        fill: #124858;
      }

      .st40 {
        fill: #eea652;
      }

      .st41 {
        fill: #194959;
      }

      .st42 {
        fill: #3c5359;
      }

      .st43 {
        fill: #2e4f58;
      }

      .st44 {
        fill: #e4ac5a;
      }

      .st45 {
        fill: #e7a660;
      }

      .st46 {
        fill: #1b4a5a;
      }

      .st47 {
        fill: #5a6c66;
      }

      .st48 {
        fill: #42595f;
      }

      .st49 {
        fill: #efaa55;
      }

      .st50 {
        fill: #21505e;
      }

      .st51 {
        fill: #3d545a;
      }

      .st52 {
        fill: #f3efe8;
      }

      .st53 {
        fill: #415a64;
      }

      .st54 {
        fill: #70c7c4;
      }

      .st55 {
        fill: #164b5a;
      }

      .st56 {
        fill: #1f4b58;
      }

      .st57 {
        fill: #eba859;
      }

      .st58 {
        fill: #e9ac5b;
      }

      .st59 {
        fill: #f7f8f7;
      }

      .st60 {
        fill: #e7b056;
      }
    </style>
  </defs>
  <path class="st9" d="M275.03,68.37c.53-2.88,5.03-2.51,5.68.11.42-.82.78-.79,1.09.08,3.24.37,6.46.74,9.66,1.09l1.12,2.55,2.4-1.03c3.68.69,10.46,8.52,12.54,11.91,2.04-5.33,8.09-14.58,14.74-12.35,4.02,1.35,3.78,4.47,1.6,7.57-8.07,3.97-8.67,12.11-4.85,19.44l-1.21,2.01c.59,1.45.31,2.55-1.23,2.59-5.87-4.81-5.84-.9-4.76,4.34l1.92,1.5c.16,5.2,2.61,10.51,7.37,12.97-.13-4.37.25-8.51,1.13-12.4-1.91-1.76-.45-3.66,1.65-4.3l-1.18-2.16,6.62-14.1c-2.76-5.96.62-11.34,7.08-8.53l7.24-5.67c3.23-2.76,5.94-3.31,8.12-1.64.75-.55,2.08-1.23,2.44-.78,1.79,2.23,14.37,20.66,13.54,21.64-.51.61-1.18,1.05-1.87,1.45l-.83,2.55c-9.21,4.32-11.52,13.72-11.38,23.18-9.36,8.64-27.98,14.72-39.56,8.06.04,2.24-.69,3.56-2.21,3.96-3.72,4.14-10.44,2.9-12.67-2.43-7.51-7.04-15.83.76-10.8,9.4l-.42,2.25c-.77,2.62-1.5,5.39-2.2,8.32l.76,11.66c-.86,1.12-3.05,1.23-3.7,0l-.03-45.03c0-1.2-.44-1.96-.25-2.72-2.35-.99-1.93-3.65-.6-5.38-.66-9.14-8.4-15.99-18.09-15.33-13.46.92-19.54,11.83-19.24,24.45l.12,5.02.12,40.95-29.01.02c-.6-.3-.59-.63,0-1l.9-2,24.96-.02c.14-12.05.16-24.13.07-36.21-4.39-1.31-7.88-3.85-8.68-8.55-4.04,1.92-9.79.78-9.1-4.37l-1.16-1.75c-3.64,3.3-5.98,3.95-7.02,1.94-.15-.79-.36-1.76-.35-3.05l.19-39.02h26.99c.66,3.53-.34,6.61.81,10.41,10.6-8.88,18.09-11.61,31.54-11.64Z"/>
  <path class="st34" d="M433.47,35.87c.54,3.2-.81,3.46-2.58.96l-1.62,1.68c-8.74-4.63-11.61,8.78-1.75,7.02l2.36,1.1c2.21-5.3,6.69-.98,2.96,3.03,1.85,1.66,4.93.38,9.24-3.84l2.67-.84c.47-3.46,6.88-3.07,7.07.61-.72,1.22-1.11,2.6-.93,4.02l-.82,2.3c-11.58,1.99-19.58,9.56-26.38,18.7l1.88,1.12,2.09,3.01.23,20.57c.56,2.48.58,4.61.08,6.41-.33,6.94-4.79,8.61-13.37,5.02-3.19,1.38-6.4,2.59-9.65,3.65-2.76-.82-4.71-2.78-5.87-5.89l-3.13,1.16-2.75-.52c-4.76-7.27-12.33-11-21-10.45l-2.15-1.88c-.53.76-1.19,1.06-2.02.76,0,0-4.44-7.01-13.33-21.03-.82-3.72,2.76-5.96,5.08-2.93.12-2.93,6.54-3.56,9.03-2.96.68-.97.87-2.24.58-3.82-1.31-4.23-.52-5.33,2.37-3.31,4.67-1.52,4.64,4.07,4.55,7.41l9.79,2.46.04-45.12c-1.72-9.1-12.14-12.72-20.19-9.07-6.6,2.99-9.46,7.25-3.61,12.9,8.68-1.31,17.72,5.56,18.82,14.27.98,7.71-5.64,8.48-9.76,3.49-.72-7.28-6.19-9.27-12.71-7.58l-2.38-.6c-4.08-7.52-6.81-11.17-13.63-3.8-5.98,6.47-2.65,8.1,4.77,10.35,9.88,6.87.31,14.51-7.89,7.63-2.91-.46-5.52-1.2-7.83-2.2-.11,4.34-8.61,1.63-7.79-2.14,1.85-4.03,7.38-2.08,7.38-5.61,0-9.91,7.64-19.29,18.27-19.83,3.47-10.5,13.11-16.39,23.96-16.08,11.91.35,20.98,9.34,20.97,21.64l-.04,46.94c0,2.82,2.84,4.13,5.25,5.76.54-3.52.54-6.63.59-10.11l.69-46.52c.18-11.82,12.98-18.37,23.71-17.62,9.62.67,16.77,5.81,19.8,14.71,7.43.06,15.84,6.97,16.73,13.07-2.18.65-4.67.7-6.74.13-1.85-3.89-4.96-6.2-8.62-6.79-5.89-.96-11.93,3.53-12.45,8.65Z"/>
  <path class="st37" d="M484.87,112.89c3.85,1.33,3.88,8.52,3.67,12.34-.27,4.97-1.89,8.99-4.59,13.12,8.87,1.85,17.96-1.68,22.42-9.78l2.81-.09,1.39-2.2c8.88,1.57,17.9,2.78,27.06,3.63l1.21,1.95c-3.34,15.72-15.5,27.41-30.89,31.79-.25,2.81-1.07,3.09-2.92.94l-7.16.37c-12.13.63-21.8-3.31-30.67-11-.84,13.89.64,26.23-.18,40.46h-26.2c-1.57,0-3.77-.7-4.91.3-4.87.77-4.79-3.59-.92-6.12-1.44-1.98-.47-2.68,1.12-3.8-3.16-3.55-4.16-8.09.36-10.86-.36-2.84.31-4.64,2.02-5.39l-10.12-8.05c-.87-.43-1.55-.15-2.05.83,1.93.38,1.71,1.2-.32,1.28-6.23.58-12.53.7-18.91.38-4.07,2.37-6.09-5.29-6.96-8.76-1.37-.42-1.46-1.7-.28-3.84-1.86-4.38,1.15-8.46,5.45-5.94,2.33-1.09,4.82-1.78,7.48-2.07,5.69-5.45,14.28-3.76,7.63,4.1-4.31,5.1-4.8,6.23,1.84,10.2,5.67-2.02,9.98-.91,12.94,3.31-1.08,2.83-.91-1.75.75.66.57-7.03.8-14.19.67-21.47l2.02-1.43c-5.57-1.52-2.32-4.58,1.29-7.31s5.95-2.08,9.32.45c1.66,5.54,3.88,7.07,6.66,4.58-2.03-.38-1.87-1.36.17-1.95,3.43-3.03,7.21-4.67,11.32-4.92l2.47,2.83c1.3-1.71,2.93-1.08,4.87,1.89,5.18-4.66,4.73-11.89,2.68-17.99l1.5-1.77c-1.44-3.94,5.49-4.22,5.97-.69Z"/>
  <path class="st28" d="M732.94,107.53c3.76.09,7.41,1.4,11.35,2.63,5.74,1.8,11.2,4.14,15.28,8.85,7.84,9.04,8.16,22.48.81,32.18-10.89,14.36-29.8,14.3-46.43,13.36-11.32-.64-21.92-4.35-31.39-10.6l8.01-17.62c.34-.74,1.22-1.2,1.74-1.06,2.82.78,17.11,13.56,39.22,8.15,1.95-.48,3.59-1.83,4.99-3.18,2.12-2.05,2.28-5.29.16-7.45-2.42-2.45-5.64-3.83-8.71-4.24l-1.19-.77c-.32.11-.66.05-.98,0-1.85,1.75-3.63,1.6-4.1-1.13-1.08.79-2.28,1.34-3.63,1.38-7.47.27-22.44-6.4-27.68-12.48-2.71-3.15-7.78-10.98-3.69-13.85-.94-4.16.08-5.64,4.32-4.9-2.71-4.69,1.37-8.12,5.34-4.52,5.51.1,6.28,1.47,5.85,6.69,2.93-4.74,5.92-6.04,8.98-3.92-.71,3.96.32,6.85,3.07,8.67,5.91,2.76,12.13,4.03,18.67,3.81Z"/>
  <path class="st25" d="M480.6,61.5c.1,1.84.56,3.66,1.5,5.24l2.22,1.47c4.11-.73,27.77-.23,29.55,1.65.69.73,1.02,1.64,1.13,2.63,6.31,2.74,14.04,9.03,16.92,15.29,1.69.42,2.13,1.45.82,2.56-8.85,2.65-17.16,6.55-24.95,11.67l-1.91-1.35-2.62.05c-9.96-9.78-25.42-7.16-32.16,4.91l-2.34.92c1.26.64,1.5,1.63.73,2.97,2.65.64,4.51,1.76,2.32,4.02.7,2.5-1.53,2.95-3.7,3.18-.04,4.56,1.05,8.9,3.29,13.03l-1.54,1.71c-4.73-2.33-7.35.25-12.21,3.38-.85-1.01-1.24-1.38-1.58-1.29-4.28-.72-1.93-4.84,1.31-6.53,8.12-16.85-19.37-13.82-9.38-.11,3.04.62,4.93,2.07,5.66,4.36-.37,1.97.37,3.38,2.24,4.23-.03,1.29-1.7,1.5-2.57,1.72-1.35.34-2.03-1.24-3.14-1.83-3.78-1.99-.9-3.1-4.42-5.87-5.92,4.55-1.78-.88-9,6.72.39.57,1.11.38,1.52.49.71.19.33.52.33,1.04,1.18,2.5-5.79,1.7-6.49,1.27-5.1-3.16-2.37-10.78,4.03-9.64l.53-59.66,2.2-2.04,11.19-.47c-1.43-6.1,4.72-10.22,8.87-5.24,1.43,1.72,1.58,4.28-.95,4.63,1.13,1.85,3.68,2.72,7.65,2.62l.43,2.46c1.67-.29,2.4.86,2.18,3.46,2.14-1.68,4.81-3.1,7.53-2.79-.66-2,.1-4.84,1.09-6.8-.91-.22-.9-.52,0-.91-4.56-6.16-.67-9.26,3.74-3.15Z"/>
  <path class="st55" d="M188.08,119.77c.37.81-.27,1.58-.73,2.65l-16.59,38.79c-4.18,9.78-9.08,21.63-17.19,28.16-12.13,9.76-32.29,9.33-45.69,2.41.4-4.92,5.54-16.36,7.86-21.1,4.05,2.53,7.73,3.54,12.2,3.41,6.85-.19,12.79-5.31,12.5-12.41-.17-4.18-6.36-13.06-6.63-16.96l-.76-1.09c.09-.32,0-.7-.04-1.03l-2.13-7.59c3.01-8.04,7.88-7.14,14.62,2.72.9-.2.98.09.32.81,2.9,3.19,3.59,5.88,2.07,8.08.82.04,1.66.26,2.03.97,1.64,3.1,5.14,6.95,8.44,2.79s-2.79-7.92-6.83-7.47c-2.21-2.4-2.78-4.45-1.71-6.15-3.41-5.02,2.06-8.47,6.46-4.57,2.64-2.21,4.15-5.43,4.52-9.67-.52-1.64,3.31-8.04,3.25-9.92.89-2.24,2.94-1.98,6.14.79l17.07,4.29.82,2.08Z"/>
  <path class="st23" d="M427.96,101.73c-.29-1.01.14-1.84,1.05-1.59,3.83,1.06.62,10.66-.83,13.23l.17,38.62c3.91-1.02,9.76,5.96,7.59,8.67-.76-.16-.95.75-1.94.99l.65-1.54c.16-.39-.54-.82-1.15-1.24-7.63-5.28-9.76,6.31-18.41-6.18.45-1.97.53-3.89,1.31-5.32,1.69-1.4,3.24-2.61,4.33-4.67,1.42-.12,1.36-.97.28-1.16-2.7-.94-4.51.19-6.23,2.01-1.81,1.48-4.75,1-6.96,1.97-5.09,2.23-2.73-1.03-5.24.17-3.53,1.69.68,2.96-1.29,6.68-1.34,2.53-.13,3.74,1.5,5.44,1.5,1.57,2.28,4.61,5.12,4.63l18.11.17c2.04,1.38,1.16,2.66-1.21,3h-15.97c-3.78,17.8,6.6,32.53,24.13,21.95l2.04,1.04c-.9,1.22-1.84,2.77-.48,4.35.58.67,1.56.93,1.39,1.77-7.5,6.53-19.64,6.06-27.55-.47-4.14-3.42-7.52-8.16-7.64-13.58l-.36-15.99c-.07-3.09-.1-10.41-1.02-10.76-.11-.04-4.55,3.38-4.57,4.7l-.28,23.05c-.1,8.62-7.44,15.05-15.56,17.04-8.18,2-15.72-.12-21.76-5.67-1.79-1.65-3.11-3.97-5.16-5.38-5.37-.57-10.3-2.3-13.18-6.22-5.09-.89,5.05-7.65,4.97-3.06,1.7-.77,3.83-.55,6.39.66,5.33-.01,9.61-2.8,12.85-8.37,13.13-2.31,6.07,12.15-.84,15.77,5.7,6.5,15.4,6.47,21.39.37,2.99-3.05,4.51-20.03,3.08-23.06-8.82,2.12-17.31,1.5-25.47-1.88l.84-2.07c-3.55-1.63,1.83-9.07,3.7-4.48l2.42-1.33c10.26,2.72,18.56-.14,25.86-7.59,6.74-6.88.86-4.24-3.88-.18-3.37,1.8-9.6,5.05-12.26,1.63l-2,.54c-.68,2.09-1.34,2.09-2,0l-2-.54c-.8,2.95-2.41,2.89-3.07-.07-3.54,1.38.52-9.36,3.14-6.27l1.42-1.95c17.86.44,29.05-15.09,21.29-31.94l1.27-1.95c-.01-.58-.35-1.37-.14-2.02,1.22-.85,2.31-1.1,3.57-1.03,2.01.12,2.38,4.58,5.23,5.69,1.53.59,3.24-.93,4.5-1.58,8.1-4.21,6.1-.26,9.79-.82,1.96-.3,3.51.45,4.72,1.38,3.43-2.05,1.16-5.96,4.34-5.55Z"/>
  <path class="st41" d="M591.86,105.64l1.1.91c11.78,1.48,30.44,5.54,35.63,18.53,5.17,12.94-.46,27.18-12.42,33.95-4.95,2.8-10.1,4.3-15.64,5.14-17.74,2.69-39.37.12-54.96-10.5l8.25-19.79c1.51-2.11,1.99-1.73,2.27.74,1.26-.29,2.64-.11,4.16.54,6.46,5.74,34.07,11.19,39.51,4.37,2.68-3.36.89-5.28-2.63-7.03-4.14-.92-7.27-2.53-9.39-4.82-.72.73-1.81,1.3-2.5.73-2.37-1.98,1.72-21.97,3.39-23.33.66-.54,1.75,0,2.53.63.23-.11.46-.1.7-.07Z"/>
  <path class="st50" d="M39.63,85.49c3.71,2.12,7.69,3.97,12.34,5.16l20.88,5.31c5.1,1.3,9.8,3.12,14.32,5.47,15.94,8.31,21.13,26.79,13.55,42.07-3.37,6.81-8.06,10.98-13.85,14.14-1.97-1.29-1.42-2.02.11-3.24-2.66-6.38.87-9.6,7.39-8.72l1.12-2.34c2.44-2.07,5.93-5.23.7-4.68-.92-2.43-2.04-4.81-3.35-7.16-4.74-1.45-9.69-2.01-14.84-1.67.31,3.33-.71,4.64-3.06,3.92-.35-6.02-.22-8.26-6.28-11.94-7.76-4.72-35.6-8.85-43.8-15.02l-1.99-1.02c-.37.18-.66-.06-1-.04-3.79-3-7.14-6.4-10.05-10.19l-.02-1-.98-1c.01-.33-.08-.67-.02-1l-1.06-1.93c-.14-.34-.08-.64-.04-1-1.4-4.7-1.56-9.37-.47-14.01,7.63-.84,18.35-1.88,22.66,6.04,2.97.81,5.55,2.09,7.72,3.84Z"/>
  <path class="st29" d="M39.63,85.49c-4.5-.55-10.01-.57-11.58-6.22-10.72-4-5.34-.65-15.2-2.51-1.11-.21-3.54.62-3.67,1.65-1.11,9.08,1.51,1.19.53,11.21-.47.19-.84-.28-.95-.94-4-19.4,5.18-36.74,23.77-43.45,7.8-2.81,15.77-3.56,24.28-3.66,14.31-.17,27.87,2.92,40.28,9.75,1.72.95,2.09,2.32,1.46,4.01l-5.63,15.27c-.75,2.03-1.05,4.05-2.99,5.5-10.97-9.08-37.63-15.54-48.57-7.09-4.02,3.1-6.52,8.79-3.96,12.91l2.22,3.57Z"/>
  <path class="st39" d="M74.95,133.77c.83-1.21,1.48-1.86.6-4.47s7.04-.8,7.24-.89c2.99-1.39,9.98-.01,11.54,1.78,1.82,2.09,2.8,3.91,2.49,7.52,1.8-.52.29-5.21,3.76-9.63,5.25,1.48.45,10.05.57,9.61l-1.03,3.91c-.16,1.54-.67,2-2.08,2.11-2.09,1.24-1.76,3.93-2.54,5.97-1.1-1.74-1.83-2.18-3.63-2.11s-4.21.72-3.84,2.98c.3,1.86,1.68,3.64.44,5.27-.54.71-1.75.94-1.58,1.82-5.18,2.83-10.29,5.4-17.01,6.36-19.87,2.84-42.13.05-59.59-10.62-1.88-1.15-3.69-2.1-4.96-4l5.74-11.8c1.62-3.34,2.28-6.62,4.65-10.05,12.09,9.8,26.37,14.69,41.17,14.22,9.28-.3,13.52-1.3,18.07-7.98Z"/>
  <path class="st35" d="M323.96,47.53c2.04.91,4.89,3.24,7.79,2.14,6.17,2.45,12.03,5.83,17.58,10.14l3.13-.33c3.1-7.58,11.91-9.15,18.38-4.28,1.74,1.31,4.23,3.64.92,4.34-3.72.3-.35,8.35-2.95,7.12l-1.32-.41c.26-5.72-4.15-7.61-7.66-2.88.62,2.51.61,4.59-.05,6.25-1.35.14-2.91.78-3.86,1.46.99,2.23,2.29,2.91,3.2,4.28l4.75,7.17c-.19-.29,6.34,11.35,6.17,10.29l2.21.66,3.91,10.14c20.18-1.82,22.02,26.28,1.09,26.23l-3.35,10.36-1.95,1.3c-.41-.8-4.36,6.7-3.14,6.27,2.95,1.25-.76,6.8-3.07,7.55-1.88-1.11-3.05,3.2-3.7,4.48-1.16,6.92-11.4,16.82-18.24,18.57,1.8-1.56-8.23,3.64-4.97,3.06-1.87-.22-3.82.27-5.66,1.37-5.71,3.42-18.19,4.7-24.95,3.31-2.2-.45-4.72-.23-6.54-1.25-5.6-3.12-.89.94-9.52-3.71-2.73-1.47-5.6-2.81-7.98-4.78-12.1-10.01-6.29-5-15.72-15.49-1.6-1.78-6.99-11.62-6.81-11.98-10.42-2.11-10.97-18.29.15-16.64,5.98.89,8.57,9.17,3.79,13.25l.12,1.95c-.25,1.43.19,2.91,1.12,4.33,10.11,15.47,7.12,11.62,20.99,22.82,3.64,2.94,8.05,4.37,12.36,5.91,3.87,1.38,15.5,3.55,18,2.7,2.13-.72,4.45-.75,6.76-1.45l5.99-1.81c2-.61,3.39-.94,4.04-2.5.44-3.04,5.94-5.68,8.82-6.79,6.74-4.39,11.32-10.24,13.74-17.57,2.35-1.78,4.3-3.91,5.84-6.39l2.37-.19c-2.89-1.16-.54-5.03,1.82-5.82-.93-.42-1.62-.88-1.57-1.24.44-3.03,2.29-9.69,5-10.95-.88-1.89-2.03-3.66-3.44-5.33l.4-2.81c-3.92-3.19-1.41-9.62,1.95-12.68l-1.82-5.42c-1.89-2.76-2.63-5.29-2.22-7.59-.21-.96.05-2.38-.7-3.4-3.64-5-9.56-17.28-13.41-18.91-1.52.17-3.08-.97-4.7-3.41-17.17.06-34.22.23-51.15.5-.54,2.16-1.65,3.07-3.35,2.75-1.84-.86-3.91-1.07-5.99-2.3-.95-.57-5.3.53-4.79-1.34,1.05-1.78.69-1.8-1.09-.08-1.91.34-3.79-.11-5.68-.11.06-1.36-.24-2.73-.57-4.1-2.1.45-3.86.21-5.91-.86-1.52-.8-1-4.37.39-5.51l4.7-.78c6.49-3.68,12.74-7.68,20.26-9.42l6.33-1.46c9.19-2.12,16.6,1.4,23.73,1.3Z"/>
  <path class="st3" d="M160.79,122.53c1.09,3.42-.19,6.02-2.3,9.97-1.09,2.04-4.41,1.34-5.74-.74l-2.61,2.18c-.65.82-.11,2.08-.34,2.82l-.8,1.17c-2.26-1.65-3.43-1.72-3.51-.21-4.81.35-4.55-5.75-8.1-6.06-1.5-.13-3.47.1-4.24,2.07-1.67,4.26,2.45,7.47-.15,8.86-.19.09-.59.13-.73-.2l-8.17-18.85-10.29-23.87c-2.49-2-3.18-3.7-2.07-5.12-.37-.52-.33-1.3-.08-1.84l-.83-1.16-8.65-22.02,28.76-.02,11.46,27.86,13.94,33.48c2.1-2.49,2.45-4.81,3.55-7.12.05-.83.13-1.65.9-1.21Z"/>
  <path class="st0" d="M673.01,121.71c2.51,1.56,2.85,2.69-.06,3.8-.56,3.48-.13,7.13-.12,11.11l.06,26.98-28.02.04c-.83,0-1.15-.62-1.02-1.02l.9-2,25.13-.13-.07-23.44-1.88-2.38c-.36.36-.74.66-1.17.78-.4.11-5.6-4.27-6.15-5.02-.46-11.3-7.33-20.7-16.81-26.51v-2.27s-1.2-.32-1.2-.32c-.98-3.81-1.17-30.67.28-32.21.56-.6,1.38-.85,2.16-1.05l26.86.07,2.49,2.65.49,49.66-1.85,1.26Z"/>
  <path class="st31" d="M671.65,53.54c-.97,5.17,20.91,22.01,26.19,22.06l2.22-.6c11,5.39,23.88,5.19,36.04,4.65,3.54-7.58,13.99-5.92,15.67,2.16,1.96,9.42-10.42,12.44-16.21,5.84-13.74-.21-28.79-.67-41.32-6.94l-.34-2.11-2.37.83c-7.62-3.9-19.01-13.62-24.41-20.33l.67-2.35c-.8.57-1.62.81-2.34.19-2.55-5.43-5.77-7.82-9.67-7.19-2.1,3.34-4.44,5.27-7.04,5.81-1.25,3.89-6.89,9-10.39,11.74-3.75,3.84-7.6,5.93-11.54,6.27.07.76-.01,1.62-.65,1.98-1.16.65-8.75,3.46-10.78,4.18-1.27.45-14.02,4.33-14.2,3.62-.03-2.61-.23-2.59-.58.01-11.64,1.73-23.3,3.21-34.98,4.43.15-.52-.13-1.05-.5-.87-4.02,2.02-8.33,2.58-13.12,3.1-.65.07-1.08-.89-1.17-1.68l-2.31,2.59c-4.59,1.01-9.14,1.57-13.65,1.69-8.6,3.11-16.68,7.27-24.24,12.48,2.21,3.63,2.22,6.08.03,7.37-.21.78-.53,1.95-1.13,2-5.92.55-17.26.64-23.11.27l-1.56-1.85c-1.97.22-4.63-1.3-5.97.69-1.6,1.78-5.34,1.42-7.1-.05-.56-2.86-5.35-1.63-4.89-3.4-2.33,8.87,3.85-12.05,1.83-3.59,9.01-.85,18.13-1.09,27.34-.71l7.15-5.9,2.63.73c1.69-.95,4.21-.97,6.21-2.77,2.46-2.21,5.7-3.1,8.43-4.78,6.22-3.83,11.81-2.96,11.4-5.33,8.13.06,4.7-1.53,16.02-2.34,2.03-.15,3.61-1.12,5.18-1.32,2.13-2.26,5.26-3.14,9.4-2.65,14.44-1.85,28.87-4.09,43.29-6.71,4.02-1.47,8.08-2.44,12.16-2.89,5.65.7,24.84-13.88,26.9-19.2-.57-3.01,3.97-6.18,6.28-7.6-1.46-4.67-1.43-7.6,3.55-10.65,8.28-5.07,12.21,4.89,11.86,11.79,2.58,2.33,4.27,4.77,5.1,7.33Z"/>
  <path class="st51" d="M732.94,107.53c-2.75-.07-6.45,2.1-10.72.73l-3.27-1.05c-2.79-.9-5.92-1.51-7.7-3.72-1.55-1.93-1.58-3.82-.62-5.97-.26-1.03-2.68-2.47-3.46-1.43l-4.12,5.44c-2.51-.48-3.58-2.49-2.8-4.66,1.65-4.6-4.07-.26-6.57-4.4-1.15.19-1.25.4-1.44.69-2.19,3.31,5.9,1.84,1.75,5.79l-7.1-.33c.04,1.42.21,2.27-.19,3.09-4.52,2.88-2.19-9.09-1.25-11.98,1.25-3.83,4.11-11.57,8.44-11.11-1.6-1,13.81,5.32,14.99,5,.4-.11,12.64,1.71,12.08,1.7l16.01.38c2.17,3.87,6.05,5.21,9.19,3.3,2.61-1.59,3.85-3.38,3.74-5.88s-1.32-4.58-3.97-5.78c-3.86-1.74-8.05.86-8.25,4.37-7.62-.14-15.11.9-22.73-.44l-4.09-.72c-4.09-.72-11.2-2.45-13.02-4.94,9.8-7.3,24.39-8.01,37.04-7.22,9.15.57,17.62,3.09,25.62,7.54.99.55,1.01,1.87.61,2.75-2.8,6.15-4.71,11.99-7.9,18.07l-8.16-3.37c-8-3.3-25.72-6.95-31.98-.53-1.74,1.78-1.49,4.53-.58,6.72,1.89,4.54,14.2,6.54,19.4,7.02.82.08,1.51.3,1.03.95Z"/>
  <path class="st26" d="M190.87,114.54c.44,2.39-.25,2.72-2.54,3.17-3.71.74-19.91-3.99-22.41-6.91-1.04-1.22-1.24-1.49.07-3.08.34.26.67.31.8-.2.61-2.86,1.43-5.03,2.38-7.46l7.59-19.53c1.12-2.89,3.73-11.02,5.13-11.02h27.82s-11.29,26.41-11.29,26.41l-7.09,16.98c-.47.64-.54,1.21-.44,1.63Z"/>
  <path class="st56" d="M313.05,137.61l2.15.69c2.64,9.53,10.66,10.82,18.84,6.02,6.52,2.2,7.51,6.62,1.17,10.46-10.42,1.13-6.54,10.82.29,13.75,2.86-3.97,11.24-2.57,8.31,2.15,1.24,2.06-7.62,6.98-8.82,6.79.41-.66-.42-.82-1.11-1.14-10.14-1.85-13.51-11.25-13.19-20.64-2.99-1.83-5.87-3.67-8.97-6.29l-.33,13.96-26.49-.06c-.79,0-1.47-.11-1.84-.33s-.17-.99-.17-1.32c.85.06,1.73.11,2.03-.53-.1.21-3.97-17.15,3.1-19.45l1.78-1.32c4.7,1.86,9.6-.02,11.62-4.69,3.28-1.22,12.13-2.63,11.63,1.96Z"/>
  <path class="st46" d="M667.92,134.67c2.91.38,3.87-1.86,3.88.92l.08,27.01h-28.04s.11-55.07.11-55.07c.21-.89.82-2.19,1.33-2.04,7.96,2.27,16.48,18.01,15.14,26.24-8.61,7.77,3.74,14.17,6.12,3.31l1.37-.37Z"/>
  <path class="st58" d="M623.07,97.64l1.14-1.9c5.11-.02,16.96,1.64,19.59,5.92,6.17,3.78,14.86,12.02,16.5,19.75.43,2.01,1.99,3.75,1.78,6.23s1.4,3.64,3.57,4.1c1.06.99,1.35,2.4,2.28,2.94-.41,4.81-.87,7.09-5.87,7.95-3.65.62-5.87-1.36-6.6-4.7-.19-.87-.68-1.34.28-2.25.02-5.04,5.04-2.66,2.77-9.33-1.13-3.32-1.76-6.74-3.73-9.6s-7.63-10.31-10.82-9.2c3.51-3.97-30.98-7.79-32.08-7.82l-13.95-.34c-2.61-.06-5.79,4.72-6.76,6.32-2.2.14-3.17,7.22-3.49,9.9-.21,1.76-3.89,11.24.07,12.06,11.76,9.06-5.76,21.46-13.18,8.98-6.19-.57-12.34-1.26-18.47-2.04-.85.08-1.59-.29-2.27-.74-1.63-1.08-11.5-2.51-15-2-1.14.16-3.32-.05-4.51-.63-2.8-1.37-5.49-.34-8.52-.75l-7.99-1.08c-3.02-.41-5.85-1.63-8.63-.93-3.65-.31-.17-8.71,1.59-4.95,9.21.62,18.42,1.38,27.63,2.27l1.5,1.84,1.29-1.51c11.26,1.67,23.16,1.97,34.36,1.94,1.18-1.82,2.55-2.55,4.13-2.21,1.79-6.68,3.18-13.44,4.16-20.27l1.97-.99c-11.73-10.11,3.76-21.58,11.63-10.76l8.5.2c.23,2.66.4,2.71.51.09,5.61.41,11.3,1.75,16.63,3.5Z"/>
  <path class="st15" d="M451.81,45.59c-3.9-1.67-4.96-.31-7.07-.61-1.67,1.4-3.93,2.01-6.79,1.83-1.48,3.35-3.18,4.29-5.11,2.84.21-1.26.39-2.68-1.21-4.03l-1.75,1c-2.48-.87-2.09-2.37-.91-4.29-.87-3.18-.22-5.02,1.92-5.5.96.03,1.79-.44,2.58-.96-1.55-.56,2.63,3.67,4.09,3.21,2.19-.69,4.13,0,6.37.2,4.33.39,8.53.24,12.98.24l46.11-.03c1.45-1.38,1.9-3.25,3.05-4.63,3.33-4.01,8.53-4.02,12.96-1.79,3.54,1.78,7.06,9.04,3.32,13.87-.59.76-.7,1.96-1.62,2.6-4.26,2.98-10.14,2.96-14.12-.67-1.24-1.13-1.78-3.78-3.74-4.09-6.76-.42-13.25-.31-20.01-.26l-27.99.19c-1.33,0-2.55.14-3.08.89Z"/>
  <path class="st57" d="M165.98,107.72c3.46,5.74,15.91,7.95,22.74,8.03.93-.44,1.32-1.51,2.15-1.21-.07.74.19,1.6.73,1.8.58.21,1.38-.16,2.02-.2l11.24-.79c-.51.04,10.91-2.96,11.01-3.68,2.82.45,6.77-5.12,9.81-6.97-1.39-2-.43-3.6-.05-5.33.62-2.81,2.23-4.01,5.25-3.97s4.35,1.31,5.46,3.89c.63,1.47.18,2.75-.54,4.21-2.97,6.03-5.23-.65-11.75,7.96-.73,2.46-2.78,4.45-6.14,5.97l-.02,43.99-2,1.19v1c-.46,0-1-.01-1-.99l-.06-47.13c-1.44,1.61-2.72,1.72-4.91,2.23l-7.07,1.64-14.77.4c-1.98.05-15.22-3.39-18.06-4.57-2.08-.86-3.74-2.9-5.97-2.59-6.44-6.31-10.9-14.21-9.95-24.14-5.05-1.74-7.58-6.58-6.15-12.01.83-3.18,4.3-6.46,7.96-6.51,3.85-.06,7.62,2.91,9.34,6.07,1.86,3.42.66,8.21-2.01,10.86-1.35,1.34-3.69,1.5-4.88,3.12-1.95,4.03,2.38,17.65,7.62,17.72Z"/>
  <path class="st48" d="M671.65,53.54c-1.42,1.05-7.43-7.14-7.42-7.03l-.56-7.8c-.08-1.15-1.37-1.87-1.97-2.94-1.83.18-3.95-.63-5.58.15-3.82,1.81-5.13,5.94-3.23,9.47-2.99,2.82-5.05,5.58-8.03,7.27-1.49-2.34-3.39-4.74-3.87-7.97-1.63-11.16,6.76-20.35,17.87-19.87,3.67.16,6.78.97,9.71,3.18,6.45,4.85,9.63,13.91,5.68,20.9l-2.61,4.63Z"/>
  <path class="st42" d="M617.96,71.86c.1.53-.03.91-.13,1.26-.21.74-1.56.07-2.09.31-7.05,3.22-14.14,4.38-21.58,5.54l-6.25.97-5.89.78c-8.6,1.14-10.15,1.04-18.45,2.58-2.95.55-5.25.14-10.46.8.19-.46.44-.99.56-1.81,7.43-9.61,20.09-13.83,32.21-13.84,9.12-.63,17.87-.04,26.68,1.49l5.39,1.9Z"/>
  <path class="st49" d="M515,72.48c-9.13-3.96-15.82-4.06-26.15-3.74-2.21.07-4.15,1.71-6.88.67-.3-1.27.43-2.06.13-2.67l8.78-.14c1.64-.03,2.73.87,4.02.87l26.97.03c7.47,0,3.42-2.58,10.01-6.86,3.51-2.27,8.74-.74,11.74,2.24,2.43,2.41,2.8,6.35,2.11,9.72-.61,3.01-3.13,4.88-5.66,6.16-3.98,2.01-8.8.86-11.84-2.5-1.09-1.21-1.17-3.38-2.67-4.16-1.25-.64-10.52-.81-10.58.38Z"/>
  <path class="st44" d="M462.85,49.67c5.24.59,9.49,2.5,12.75,5.73,2.93,2.59,4.78,1.77,5.01,6.09-.6.63-4.82-3.26-4.77-.62.47,1.35,1.38,2.52,1.03,3.77-.66.74-1.41,1.06-2.3.79-10.05-18.11-37.73-9.93-46.49,5.75l-2.53.53c-7.67,4.53.66,10.04-7.7,12.9-1.27-.44-2.95-1.14-3.77-2.07-.43-2-.6-4.13.07-5.82,1.74.4,5.8-4.13,6.14-4.72,2.18-3.78,5.44-6.47,8.53-9.49,11.84-11.53,5.58-6.9,22.06-12.93,3.77-.29,9.38,2.01,11.96.06Z"/>
  <path class="st12" d="M111.75,94.56c1.75,2.44.73,2,2.07,5.12.38-.79-16.14-7.93-14.88-8.05-.91.08-9.43-2.87-10.74-3.35-11.76-4.3-22.98-5.37-25.02-6.1-5.59-2.01-6.41,3.6-11.35,3.21-2.73-.21-4.7-2.63-4.99-4.37-.39-2.35-.28-5.2,1.79-6.55,2.3-1.5,5.26-1.32,7.3.16,3.83,2.79.46,4.01,8.96,4.63,3.83.28,6.86.94,10.41,1.82l8.65,2.14,7.02,1.97,5.81,2.23c8.21,3.14,8.56,4.32,14.96,7.13Z"/>
  <path class="st40" d="M281.99,108.51c1.57,1.13,1.03,3.67.6,5.38-.32.33-.9.58-1.73.6l-8.91.28c-2.23,5.18-7.33,8.32-13.05,6.31-2.47-.87-5.22-3.35-6.29-5.81-1.53-3.52-.91-8.36,1.87-11.09,3.84-3.77,10.17-3.64,14.27-.49,1.75,1.35,2.17,3.75,3.44,5.33.85.49,10.5,1.11,9.8-.52Z"/>
  <path class="st10" d="M507.94,163.66c.17,1.09.91,2.14,2,2.99,5.55,4.29,1.91,3.08,10.11,7.99,3.04,1.82,6.3,3.6,9.99,4.65l6.15,1.76c1.91.54,4.61.84,6.61.38l9.09-2.11c2.18-.51,10.56-4.29,11.44-6.92.77-2.3,2.61-4.79,5.35-3.39,2.05,1.05,1.94,5.14.11,6.34-1.43.62-2.55.35-4.05.21-1.09,2.27-3.46,2.66-5.2,3.88-4.46,3.13-9.01,3.85-13.97,4.87s-14.75-.47-19.63-2.56c-7-3.01-18.63-10.67-20.92-17.14.95-.17,1.98-.67,2.92-.94Z"/>
  <path class="st45" d="M721.7,126.65c1.41.23,2.87.04,4.1,1.13-.24.66-.06,1.58.78,2.19,2.12,1.53,2.51,7.31.49,9.35-1.61,1.63-3.72,2.74-6.31,2.22s-3.81-3.64-5.36-5.23c-3.37-1.02-6.89-.47-10.52-.89-1.5-.18-2.57-1.61-3.95-1.64-6.34-.17-14.32-3.37-19.67-5.43l-5.69-2.19c-1.03-.39-1.88-.69-2.64-.64.18-1.14.21-2.66.06-3.8l1.69-1.5c12.85,5.52,26.48,9.29,40.59,9.61,1.66-1.63,3.8-2.69,6.41-3.18Z"/>
  <path class="st2" d="M265.71,147.48c-.4.06-.87.09-1.08-.15-3.44-3.81,3.68-2.39.65-11.13-3.69-1.01-4.98-4.45-8.44-.53-1.46,1.65-1.78,5.59-.33,7.55,1.2,1.63,5.59,4.76,5.14,5.69-2.06.04-4.39-.35-6.85-1.54-3.51-1.7-5.46-6.7-4.5-10.69,1.59-6.59,8.3-8.16,14.5-7,1.63,1.91,3.76,2.9,4.69,5.16,2.35,5.74,1.26,9.39-3.79,12.63Z"/>
  <path class="st47" d="M475.59,55.41c-1.46-1.28-3.08-2.32-5.49-1.85-1.23-3.89-5.95.03-7.25-3.88,7.17.38,8.78-.92,12.75,5.73Z"/>
  <path class="st29" d="M21.88,105.75c-.74.02-.96-.96-1.73-1.36-4.54-2.37-8.31-8.31-8.32-8.83,4.08,1.95,1.86,3.93,6.06,6.1,1.84.95,3.41,2.48,3.99,4.1Z"/>
  <path class="st29" d="M24.87,106.81c-.4.16-.84.11-1.38-.1-.33-.13-.74-.36-.61-.91.38-.18.94-.26,1.44-.15s.74.62.55,1.16Z"/>
  <path class="st29" d="M10.82,92.56c-1.15.22-.94-1.14-1.06-1.93.52-.17.97.08,1.09.56s.03.97-.04,1.37Z"/>
  <path class="st58" d="M592.97,106.54c-.6.12-1.67,0-1.1-.91.55-.05,1.5.09,1.1.91Z"/>
  <path class="st3" d="M133.8,144.71c-.82.41-1.06-.5-.76-1.09.84-.2.91.49.76,1.09Z"/>
  <path class="st29" d="M11.82,94.55c-.73.25-1.01-.4-.98-1,.61-.05.97.35.98,1Z"/>
  <path class="st12" d="M111.67,92.72c-.84.34-.7-.75-.83-1.16.83-.34,1.17.53.83,1.16Z"/>
  <path class="st45" d="M727.97,128.55c-.49.04-1.61.15-1.19-.77.54-.19,1.57-.11,1.19.77Z"/>
  <path class="st33" d="M224.04,111.48c1.36-.23,1.6,1.49,2.67,2.47,2.49,2.27,6.25-.85,7.23-.08,2.56,2.01-.06,3.61,4.72,6.96,1.37.96,2.94,1.77,4.52.32.13-.1.63.66.63,1.43l.07,40.02-28,.02.02-46.67c2.66-.45,6.87-5.39,8.14-4.48Z"/>
  <path class="st38" d="M354.97,129.77c-1.53,1.82-3.27.56-1.94.3,2.1-.42-2.33,4.3-4.15,1.66l.23,2.17c-10.99,3.93-22.5,5.61-34.51,5.05l-1.56-1.33c-.98-1.48-8.21-.97-9.98-.68-1.07.18-.97,1.77-1.63,2.53-3.18,3.71-9.21,4.72-13.44,2.2-2.44-1.45-3.38-6.12-3.06-8.44.36-2.71,1.66-5.95,4.71-7.14,5.43-2.11,10.89.32,13.32,6.3,3.21.89,6.14-.19,8.92.05,7.06.62,22.26.6,29.36-2.36,7.14-2.97,5.35-2.96,11.35-5.43,1.81,4.74,1.72,3.71,2.36,5.11Z"/>
  <path class="st7" d="M281.79,68.56c-.36.11-.75-.14-1.09-.08-.08-1.1-.85-2.28-.82-3.85.08-3.52,2.83-5.42,5.54-5.29,2.92.14,4.93,2.95,4.53,6.34-.52,4.43-6.74,2.29-8.16,2.88Z"/>
  <path class="st59" d="M414.41,44.31c1.8,6.17,6.22,7.61,11.9,9.53.21,2.34.07,4.88-1.06,7.07-2.86,5.55-10.1,7.05-15.03,3.52-3.13-2.24-3.48-5.29-3.47-8.82l.09-26.93c.01-4.07.5-7.8,3.21-10.94,3.41-3.96,8.45-6.21,13.84-5.92,6.55.36,12.06,3.61,14.76,10.11-4.08,2.02-7.34,4.2-9.51,7.92-1.42,1.06-3.41.21-5.34.44-6.79.82-11.25,7.58-9.37,14.02Z"/>
  <path class="st4" d="M430.89,36.83c-.1,1.76-.22,3.58.01,5.83-.63,1.49-1.23,2.73-1.03,3.97-2.91,1.67-6.29,1.86-8.87-.58-2.12-2.01-2.03-5.38-.68-7.58,3.36-5.47,8.78-1.69,10.56-1.63Z"/>
  <path class="st18" d="M368.81,66.66c-.66,2.17-7.21,2.77-9.03,2.96-1.38-2.15-2.94-4.99-1.5-7.63,1.1-2.02,3.3-3.07,5.12-3.19,1.68-.11,4.73.74,5.29,2.7s.14,3.79.13,5.16Z"/>
  <path class="st11" d="M444.74,44.98c-.62,3.16-9.37,8.58-11.51,7.27-.75-.46-1.19-1.38-.86-1.86.15-.22.14-.51.47-.73,4.99-2.88.42-6.35,11.9-4.68Z"/>
  <circle class="st23" cx="394.88" cy="100.62" r="1.12"/>
  <path class="st60" d="M456.06,133.54c-.13.65-.15,1.3-.17,1.95-1.01.21-2.17,1.16-4.23.4-.16-2.29.8-4.85-1.06-5.93-2.12-.64-4.55-1.21-6-3.63s-1.27-6.78.59-9.4c2.42-3.41,7.32-4.2,10.88-2.89,3.73,1.37,5.16,4.88,4.88,8.56s-1.74,6.59-5.26,7.77c.19,1.6.54,2.38.38,3.17Z"/>
  <path class="st23" d="M438.49,168.56c-8.14-1.76-9.36-10.17-12.17-7.22,0-1.08-.63-1.98.32-1.38-.05-2.54,6.89,4.38,8.46,5.3,1.78,1.05,3.63,1.01,3.38,3.29Z"/>
  <path class="st44" d="M475.77,72.37c-2.76.8-5.56,1.23-8.39,1.31l-1.33-1.98c-2.29-1.26-4.85-2.14-7.63-2.29-.05-1.3-.51-1.99-.46-2.78.34.06.73.33,1.17,1.06l16.48-.58c.44-.47.59-1.75,1.24-1.53,1.34,1.37,1.21,3.72.64,5.68-.81.41-1.34.84-1.73,1.11Z"/>
  <path class="st36" d="M475.77,72.37l-7.27,5.04c-2.75,1.91-2.44-5.32-2.45-5.71l7.86-.13c1.04-.02,1.86.02,1.85.81Z"/>
  <path class="st21" d="M149.81,136.76l2.95,4.85c2.14.1,4.39-.25,5.98,1.2s2.6,4.41,2.15,6.63c-.66,3.33-3.92,4.49-7.06,4.31-4.02-.23-6.07-3.73-5.96-7.13,1.51-2.31.82-5.01-2.07-8.08-.03-.29-.22-.55-.32-.81-1.66-4.44-3.89-7.16-5.68-10.22l-5.39-9.22c-2.12-3.62-4.21-7.08-6.61-10.74-3.13.38-5.94-.77-7.38-3.41-1.93-3.55.69-7.48,3.95-9.05,1.56-.75,2.32-.51,3.79.11,6.74,2.84,2.26,8.54,4.07,12.15l2.04,4.06c.74,1.48,2.18,2.41,2.75,4.14.96,2.94,8.47,14.24,8.48,14.25l1.96,4.08c.65,1.36.92,2.8,2.33,2.88Z"/>
  <path class="st3" d="M147.88,146.62c.05-1.48.05-2.96-.06-4.76-1.5-.23-2.17-.7-2-1.72.08-.49.04-1.04,0-1.61-.23-1.73,4.7,5.05,4.06,6.41-.33.71-1.01,1.53-2,1.68Z"/>
  <path class="st35" d="M373.88,148.39c-.28.15-.86.26-1.39.22-.31-.02-.77-.18-.61-.77.3-.09.86-.31,1.39-.23.31.05.77.18.61.77Z"/>
  <path class="st35" d="M377.88,147.86c.16.6-.3.74-.65.76-.38.02-1.08-.07-1.35-.22-.16-.58.31-.75.62-.77.46-.04,1.12.08,1.38.23Z"/>
  <path class="st19" d="M319.67,51.42c1.43-.02,1.71.79,1.85,1.96,1.97-.34,3.78-.31,5.45.08,1.72-.23,2.67.45,3.89,1.06l4.58,2.31c1.41.71,2.53,1.27,3.4,2.62,1.27.51,1.36,1.4.13,2.28l-43.89-.06c-5.32-9.7-4.71-3.28-8.7-7.82-1.21-.87,12.27-4.08,10.52-3.92,2.01-.19,23.76-1.22,22.77,1.49Z"/>
  <path class="st22" d="M385.48,114.33c1.67,4.23-.76,8.09-4.12,9.17-3.68,1.18-7.06-1.22-8.52-4.9-.73-1.84-.97-3.07.3-4.75,3.16-4.18,3.25-4.39,8.59-4.07.99,1.79,2.94,2.53,3.75,4.56Z"/>
  <path class="st43" d="M354.97,129.77c2.41,5.27,6.96,9.55,12.61,10.95-.59,5.25-2.37,4.65-1.82,5.82-5.06.6-16.04-9.7-16.87-14.81l4.51-3.25c.45.46.84,1.26,1.57,1.29Z"/>
  <path class="st27" d="M367.96,120.37c1.13,1.76,2.85,3.24,3.86,5.37.41.95-.53,2.13-.82,2.78.14,1.34-9.49-4.52-10.09-4.9-1.41-.89-1.65-2.74-1.23-3.73.67-1.58,2.74-2.61,4.58-1.48,1.35.83,2.47,1.64,3.69,1.97Z"/>
  <path class="st53" d="M326.97,53.45c-.76,2.38-6.14,2.22-8.25,1.42l.96-3.45c.11-1.57,8.62.89,7.3,2.03Z"/>
  <path class="st8" d="M626.8,73.59c1.12,1.88.32,3.36-.56,5.49l-6.1,14.7c-.33.79-.66,1.32-.32,1.73l-.72.85c-9.18-2.33-18.42-4.54-27.73-6.63-10.42.35-20.29,7.31-6.06,13.54l.49,1.35c.51,2.36-3.47,20.59-4.59,21.04-.44.17-.97.34-1.53.22-3.13,2.53-9.86-.3-13.6-1.89-4.68-1.22-7.36-3.36-8.04-6.42-3.09,1.14-5.1-.61-4.07-3.81-2.61,1.15-6.19-6.46-4.1-8.22-2.7.53-3.12-4.22-.7-4.59-.56-1-.57-1.44-.03-1.31-2.51-.9-2.51-3.08-.02-4l.64-2.08c-3.2-1.54-1.54-3.97,1.07-5.19-2.67.02,17.78-2.74,13.39-2.47l7.69-.48c-1.72.11,31.29-4.59,28.98-4l8.58-2.19c2.56-.65,5.41-.97,7.49-2.56,1.41-1.08,8.43-3.43,9.83-3.07Z"/>
  <path class="st24" d="M534.88,92.63c4.01,1.69,6.76,9.02,5.04,13.04,2.42,1.33,4.16,10.7,1.24,11.99,2.66,1.88,2.04,9.2-1.27,9.99-6.97,1.01-16.28-1.56-20.26-1.8l-7.89-.48c-1.06-.06-.87-1.26-.97-1.83.6-3.67.26-7.42-.09-11.07-.22-2.33-.78-4.29-1.99-7.08-1.34-3.1,16.96-11.01,19.81-12.25,2.41-1.05,4.28-2.26,6.38-.51Z"/>
  <path class="st16" d="M667.79,56.76c-4.06,3.45-17.49,3.3-19.06-1.19-1.14-.54,7.1-8.14,5.93-7.98.2-.03,5.93-.17,6.71.65.9.95,1.71,2.09,2.63,3.35l3.79,5.17Z"/>
  <path class="st6" d="M585.54,136.84c-1.19,1.2-4.07,1.1-5.09.16-1.11-1.03-1.85-2.78-2.34-4.37.54-.72,1.38-2.09,2.1-2.62,1.3-.94,3.98-.88,4.93.29,1.33,1.63,2.29,4.63.4,6.54Z"/>
  <path class="st52" d="M592.04,94.56c1.72,1.3,2.08,2.99,1.13,4.88-.89,1.77-3.13,2.45-5.17,1.1-1.89-1.26-2.45-3.24-1.52-4.96,1.13-2.09,3.57-2.53,5.56-1.02Z"/>
  <path class="st14" d="M511.12,45.91c-1.26-.59-2.32-2.12-2.78-3.34-.57-3.57,2.96-6.32,6.45-5.85s4.48,3.66,3.84,6.31c-.7,2.86-3.88,4.58-7.51,2.89Z"/>
  <path class="st54" d="M163.35,78.56c1.19,2.31-3.19,7.42-6.77,7.09-4.56-.42-6.35-6.66-5.69-7.85,2.13-3.82,6.4-5.56,10.3-3.42l2.16,4.18Z"/>
  <path class="st32" d="M540.86,72.54c-1.84,2.36-6.17,3.03-8.31.54-1.68-1.94-1-5.46.19-7.18,2.33-.8,3.53-1.48,5.22-.78,2.47,1.03,4.6,5.24,2.9,7.41Z"/>
  <path class="st30" d="M267.59,110.64c.53,2.5-1.48,4.55-3.16,5.32-2.01.92-5.21,1.01-6.49-1.19-1.53-2.62-1.24-5.29.91-7.03,1.33-1.07,3.72-1.47,5.2-1.01,1.3.4,3.09,1.77,3.54,3.91Z"/>
  <path class="st13" d="M725.04,137.73c-2.3,1.38-4.98,1.21-6.05-.97-.93-1.91-.06-3.42.77-4.24,1.57-1.56,4.16-1.15,5.18-.16,1.39,1.36,1.87,4.31.1,5.37Z"/>
  <path class="st1" d="M298.26,137.24c-1.14,1.45-2.43,2.41-3.87,2.41-3.56-.02-6.07-3.54-6.29-5.51-.12-1.04.91-1.55,1.44-2.7,1.15-2.51,7.12-3.2,9.44.6.94,1.54.71,3.39-.71,5.2Z"/>
  <path class="st5" d="M457.98,120.42c.12,3.26-3.12,6.86-4.62,7.15-1.29.25-5.34-1.9-5.96-3.62-.67-1.87-.85-3.48.75-5.31.94-1.08,3-2.25,4.59-2.02,2.34.34,4.02,2.16,5.23,3.8Z"/>
  <path class="st20" d="M549.86,105.52c-.19,1.41-1.04,2.46-2.55,3.14-2.9,4.13-.68,5.82,6.65,5.08,1.54.94,2.39,3.07,4.07,3.81-.39-.01-1.18-.11-1.7-.03-.57.09-.53,1.98-1.29,1.97-4.16-.02-5.16,3.85-13.89-1.85.16-1.27-1.93-7.98-1.24-11.99,2.69-.01,2.4-4.43,8.75-4.23.27-.77.23-1.39.47-1.82.14-2.94,1.01,7.5.73,5.9Z"/>
  <path class="st17" d="M549.86,105.52c-.04-.88,4.48,8.4,4.1,8.22-.22,1.67-2.2,1.94-4.1,2.09-3.2.25-6.31-1.71-5.75-5.18.48-3.01,3.25-5.1,5.76-5.13Z"/>
  <path class="st20" d="M549.12,95.62c-.1-.39-.38-.8-.22-1.43.1-.38.24-1.08.86-.66.08.73.53,2.08-.64,2.08Z"/>
</svg>